<?xml version="1.0" encoding="UTF-8"?>
<svg version="1.1" xmlns="http://www.w3.org/2000/svg" width="512" height="512">
<path d="M0 0 C0.92282776 -0.00701431 1.84565552 -0.01402863 2.79644775 -0.02125549 C5.75627583 -0.03865545 8.71590391 -0.04510719 11.67578125 -0.046875 C13.19185471 -0.04788712 13.19185471 -0.04788712 14.73855591 -0.04891968 C29.34854354 -0.03340105 43.62491718 0.27657905 57.98828125 3.203125 C58.90464355 3.38536621 59.82100586 3.56760742 60.76513672 3.75537109 C67.21819998 5.06702277 73.60972757 6.56919748 79.98828125 8.203125 C80.73239258 8.39100586 81.47650391 8.57888672 82.24316406 8.77246094 C100.65711169 13.51327077 118.25265492 21.25409499 134.98828125 30.203125 C135.65021484 30.55342773 136.31214844 30.90373047 136.99414062 31.26464844 C146.8873394 36.5331318 156.05740413 42.43723227 164.98828125 49.203125 C165.56819824 49.63882813 166.14811523 50.07453125 166.74560547 50.5234375 C175.64998259 57.2440929 183.95869873 64.46280994 191.98828125 72.203125 C192.54435059 72.73728027 193.10041992 73.27143555 193.67333984 73.82177734 C200.9829097 80.87965469 207.81035969 88.11728148 213.98828125 96.203125 C214.50503418 96.87053711 215.02178711 97.53794922 215.55419922 98.22558594 C224.39452298 109.69152368 232.12129979 121.45902264 238.98828125 134.203125 C239.34583496 134.85780762 239.70338867 135.51249023 240.07177734 136.18701172 C259.64086094 172.32390045 268.97987509 211.62073106 268.64013672 252.54833984 C268.61164847 256.0103745 268.62862565 259.47048572 268.65734863 262.93245506 C268.94633545 304.14180127 258.3869852 342.92551054 238.98828125 379.203125 C238.63797852 379.86505859 238.28767578 380.52699219 237.92675781 381.20898438 C232.65827445 391.10218315 226.75417398 400.27224788 219.98828125 409.203125 C219.55257813 409.78304199 219.116875 410.36295898 218.66796875 410.96044922 C211.94731335 419.86482634 204.72859631 428.17354248 196.98828125 436.203125 C196.45412598 436.75919434 195.9199707 437.31526367 195.36962891 437.88818359 C188.3054213 445.20430945 181.05227176 451.98051815 172.98828125 458.203125 C172.42334961 458.64978516 171.85841797 459.09644531 171.27636719 459.55664062 C142.70252917 482.12859818 108.85961623 498.31070838 73.48828125 506.890625 C72.70727051 507.08100342 71.92625977 507.27138184 71.12158203 507.4675293 C68.41903733 508.09411524 65.70696069 508.6506544 62.98828125 509.203125 C61.81894043 509.46496582 60.64959961 509.72680664 59.44482422 509.99658203 C45.5627209 512.87231741 31.50895017 512.73103313 17.39746094 512.70410156 C14.55881048 512.69941585 11.72128453 512.71310157 8.8828125 512.74511719 C-33.34023258 513.21530368 -72.71252808 503.1480957 -110.01171875 483.203125 C-110.67365234 482.85282227 -111.33558594 482.50251953 -112.01757812 482.14160156 C-121.9107769 476.8731182 -131.08084163 470.96901773 -140.01171875 464.203125 C-140.59163574 463.76742188 -141.17155273 463.33171875 -141.76904297 462.8828125 C-150.67342009 456.1621571 -158.98213623 448.94344006 -167.01171875 441.203125 C-167.56778809 440.66896973 -168.12385742 440.13481445 -168.69677734 439.58447266 C-176.0129032 432.52026505 -182.7891119 425.26711551 -189.01171875 417.203125 C-189.68170898 416.35572754 -189.68170898 416.35572754 -190.36523438 415.49121094 C-222.44301981 374.8839467 -243.94826154 321.32914556 -244.21484375 269.19140625 C-244.22536522 267.80716461 -244.22536522 267.80716461 -244.23609924 266.3949585 C-244.2534992 263.43513042 -244.25995094 260.47550234 -244.26171875 257.515625 C-244.26239349 256.50490936 -244.26306824 255.49419373 -244.26376343 254.45285034 C-244.2482448 239.84286271 -243.9382647 225.56648907 -241.01171875 211.203125 C-240.82947754 210.2867627 -240.64723633 209.37040039 -240.45947266 208.42626953 C-239.14782098 201.97320627 -237.64564627 195.58167868 -236.01171875 189.203125 C-235.82383789 188.45901367 -235.63595703 187.71490234 -235.44238281 186.94824219 C-230.69911912 168.52476343 -222.9379747 150.95874816 -214.01171875 134.203125 C-213.67736816 133.56246094 -213.34301758 132.92179688 -212.99853516 132.26171875 C-197.66892287 103.01261498 -174.2985639 75.28737062 -148.01171875 55.203125 C-147.34430664 54.68637207 -146.67689453 54.16961914 -145.98925781 53.63720703 C-134.52332007 44.79688327 -122.75582111 37.07010646 -110.01171875 30.203125 C-109.35703613 29.84557129 -108.70235352 29.48801758 -108.02783203 29.11962891 C-75.32442167 11.4098649 -37.32020924 0.19081962 0 0 Z " fill="#FBFBFB" transform="translate(244.01171875,-0.203125)"/>
<path d="M0 0 C0.92282776 -0.00701431 1.84565552 -0.01402863 2.79644775 -0.02125549 C5.75627583 -0.03865545 8.71590391 -0.04510719 11.67578125 -0.046875 C13.19185471 -0.04788712 13.19185471 -0.04788712 14.73855591 -0.04891968 C29.34854354 -0.03340105 43.62491718 0.27657905 57.98828125 3.203125 C58.90464355 3.38536621 59.82100586 3.56760742 60.76513672 3.75537109 C67.21819998 5.06702277 73.60972757 6.56919748 79.98828125 8.203125 C80.73239258 8.39100586 81.47650391 8.57888672 82.24316406 8.77246094 C100.65711169 13.51327077 118.25265492 21.25409499 134.98828125 30.203125 C135.65021484 30.55342773 136.31214844 30.90373047 136.99414062 31.26464844 C146.8873394 36.5331318 156.05740413 42.43723227 164.98828125 49.203125 C165.56819824 49.63882813 166.14811523 50.07453125 166.74560547 50.5234375 C175.64998259 57.2440929 183.95869873 64.46280994 191.98828125 72.203125 C192.54435059 72.73728027 193.10041992 73.27143555 193.67333984 73.82177734 C200.9829097 80.87965469 207.81035969 88.11728148 213.98828125 96.203125 C214.50503418 96.87053711 215.02178711 97.53794922 215.55419922 98.22558594 C224.39452298 109.69152368 232.12129979 121.45902264 238.98828125 134.203125 C239.34583496 134.85780762 239.70338867 135.51249023 240.07177734 136.18701172 C259.64086094 172.32390045 268.97987509 211.62073106 268.64013672 252.54833984 C268.61164847 256.0103745 268.62862565 259.47048572 268.65734863 262.93245506 C268.94633545 304.14180127 258.3869852 342.92551054 238.98828125 379.203125 C238.63797852 379.86505859 238.28767578 380.52699219 237.92675781 381.20898438 C232.65827445 391.10218315 226.75417398 400.27224788 219.98828125 409.203125 C219.55257813 409.78304199 219.116875 410.36295898 218.66796875 410.96044922 C211.94731335 419.86482634 204.72859631 428.17354248 196.98828125 436.203125 C196.45412598 436.75919434 195.9199707 437.31526367 195.36962891 437.88818359 C188.3054213 445.20430945 181.05227176 451.98051815 172.98828125 458.203125 C172.42334961 458.64978516 171.85841797 459.09644531 171.27636719 459.55664062 C142.70252917 482.12859818 108.85961623 498.31070838 73.48828125 506.890625 C72.70727051 507.08100342 71.92625977 507.27138184 71.12158203 507.4675293 C68.41903733 508.09411524 65.70696069 508.6506544 62.98828125 509.203125 C61.81894043 509.46496582 60.64959961 509.72680664 59.44482422 509.99658203 C45.5627209 512.87231741 31.50895017 512.73103313 17.39746094 512.70410156 C14.55881048 512.69941585 11.72128453 512.71310157 8.8828125 512.74511719 C-33.34023258 513.21530368 -72.71252808 503.1480957 -110.01171875 483.203125 C-110.67365234 482.85282227 -111.33558594 482.50251953 -112.01757812 482.14160156 C-121.9107769 476.8731182 -131.08084163 470.96901773 -140.01171875 464.203125 C-140.59163574 463.76742188 -141.17155273 463.33171875 -141.76904297 462.8828125 C-150.67342009 456.1621571 -158.98213623 448.94344006 -167.01171875 441.203125 C-167.56778809 440.66896973 -168.12385742 440.13481445 -168.69677734 439.58447266 C-176.0129032 432.52026505 -182.7891119 425.26711551 -189.01171875 417.203125 C-189.68170898 416.35572754 -189.68170898 416.35572754 -190.36523438 415.49121094 C-222.44301981 374.8839467 -243.94826154 321.32914556 -244.21484375 269.19140625 C-244.22536522 267.80716461 -244.22536522 267.80716461 -244.23609924 266.3949585 C-244.2534992 263.43513042 -244.25995094 260.47550234 -244.26171875 257.515625 C-244.26239349 256.50490936 -244.26306824 255.49419373 -244.26376343 254.45285034 C-244.2482448 239.84286271 -243.9382647 225.56648907 -241.01171875 211.203125 C-240.82947754 210.2867627 -240.64723633 209.37040039 -240.45947266 208.42626953 C-239.14782098 201.97320627 -237.64564627 195.58167868 -236.01171875 189.203125 C-235.82383789 188.45901367 -235.63595703 187.71490234 -235.44238281 186.94824219 C-230.69911912 168.52476343 -222.9379747 150.95874816 -214.01171875 134.203125 C-213.67736816 133.56246094 -213.34301758 132.92179688 -212.99853516 132.26171875 C-197.66892287 103.01261498 -174.2985639 75.28737062 -148.01171875 55.203125 C-147.34430664 54.68637207 -146.67689453 54.16961914 -145.98925781 53.63720703 C-134.52332007 44.79688327 -122.75582111 37.07010646 -110.01171875 30.203125 C-109.35703613 29.84557129 -108.70235352 29.48801758 -108.02783203 29.11962891 C-75.32442167 11.4098649 -37.32020924 0.19081962 0 0 Z M-41.01171875 81.203125 C-42.03023926 81.36941406 -43.04875977 81.53570312 -44.09814453 81.70703125 C-66.89100611 85.53955351 -90.06930911 91.45202088 -110.76171875 101.953125 C-111.43493164 102.29311523 -112.10814453 102.63310547 -112.80175781 102.98339844 C-125.83059248 109.29432146 -125.83059248 109.29432146 -137.01171875 118.203125 C-138.43354659 119.30694698 -139.87162025 120.39012219 -141.32421875 121.453125 C-145.84910311 124.93037603 -149.46968344 128.74443231 -153.01171875 133.203125 C-153.68847656 134.03263672 -153.68847656 134.03263672 -154.37890625 134.87890625 C-162.69265231 145.69710376 -166.16185121 158.69834384 -165.01171875 172.203125 C-163.11038693 185.063042 -157.0778024 195.69763148 -148.125 204.984375 C-145.93272096 207.28606538 -143.96571439 209.69777619 -142.01171875 212.203125 C-142.83671875 212.821875 -143.66171875 213.440625 -144.51171875 214.078125 C-155.9091517 223.70560366 -163.89752826 238.03545739 -165.2578125 252.890625 C-166.05794461 271.12393846 -157.92958099 284.28387309 -146.1484375 297.18359375 C-144.25948044 299.43209053 -144.25948044 299.43209053 -142.01171875 299.203125 C-144.20001856 303.2342036 -146.78128432 305.97269057 -150.01171875 309.203125 C-160.24564568 320.64104334 -165.61033703 332.89950853 -165.26171875 348.34765625 C-163.82020627 364.81243164 -154.87091103 379.42431733 -142.69921875 390.328125 C-139.94782101 392.58027718 -137.10147461 394.43755022 -134.01171875 396.203125 C-132.99230685 397.18332875 -131.98925519 398.18115508 -131.01171875 399.203125 C-128.19661882 401.4804751 -128.19661882 401.4804751 -125.01171875 401.203125 C-125.01171875 401.863125 -125.01171875 402.523125 -125.01171875 403.203125 C-115.22269065 408.58415961 -105.60036318 413.54875137 -95.01171875 417.203125 C-93.9134375 417.59886719 -92.81515625 417.99460937 -91.68359375 418.40234375 C-75.28854762 424.12616492 -58.19166713 428.63333259 -41.01171875 431.203125 C-40.17044434 431.33847656 -39.32916992 431.47382813 -38.46240234 431.61328125 C-6.1975893 436.64068149 28.76473568 436.3703863 60.98828125 431.203125 C62.07753906 431.03151855 63.16679687 430.85991211 64.2890625 430.68310547 C79.92596776 428.13687482 94.99125506 424.29599267 109.98828125 419.203125 C110.65666016 418.97625 111.32503906 418.749375 112.01367188 418.515625 C127.20688281 413.24820626 141.83754966 405.43170857 154.98828125 396.203125 C155.95121094 395.5328125 156.91414063 394.8625 157.90625 394.171875 C164.85028405 389.17287457 170.59342052 383.84124582 175.98828125 377.203125 C176.49101562 376.59726562 176.99375 375.99140625 177.51171875 375.3671875 C181.0732655 370.76955443 183.05905136 365.65383128 184.98828125 360.203125 C185.34664063 359.29691406 185.705 358.39070313 186.07421875 357.45703125 C189.44233744 345.46710444 187.5001764 332.1831701 181.98828125 321.203125 C180.24242316 318.2513129 178.28127795 315.74747928 175.98828125 313.203125 C175.23675781 312.3575 174.48523438 311.511875 173.7109375 310.640625 C172.1650203 308.91681457 170.6085834 307.20234736 169.0390625 305.5 C167.22703677 303.47053118 165.58042976 301.40686071 163.98828125 299.203125 C164.56835938 298.65785156 165.1484375 298.11257813 165.74609375 297.55078125 C175.91296169 287.73623051 184.16060371 275.82542818 184.98828125 261.203125 C185.03855469 260.49414062 185.08882813 259.78515625 185.140625 259.0546875 C185.80670476 242.58919586 179.51409046 229.7464578 168.6875 217.75 C167.12476534 215.97873156 167.12476534 215.97873156 164.98828125 216.203125 C164.32828125 214.223125 163.66828125 212.243125 162.98828125 210.203125 C163.62894531 209.60886719 164.26960938 209.01460937 164.9296875 208.40234375 C177.11193423 196.72844711 184.76884912 183.98177446 185.17578125 166.890625 C184.89413692 149.61643967 176.76682609 136.26895142 164.98828125 124.203125 C162.9339044 122.44223055 160.89508079 120.84875012 158.64453125 119.3515625 C156.87437486 118.12414274 155.50529395 116.72797756 153.98828125 115.203125 C146.94471677 109.71400233 138.85322328 105.94570305 130.84667969 102.09765625 C129.29748337 101.35195797 127.7552486 100.59181867 126.21484375 99.828125 C110.57660684 92.3296644 93.88553821 87.8046348 76.98828125 84.203125 C76.31442383 84.05391602 75.64056641 83.90470703 74.94628906 83.75097656 C70.31415102 82.73252924 65.67282566 81.92818506 60.98828125 81.203125 C60.14942383 81.06632324 59.31056641 80.92952148 58.44628906 80.78857422 C26.30236103 75.7493971 -8.92521466 75.79235518 -41.01171875 81.203125 Z " fill="#000000" transform="translate(244.01171875,-0.203125)"/>
<path d="M0 0 C2.33946163 0.19479301 4.67975283 0.37448371 7.02050781 0.55297852 C21.19811401 1.6823201 35.26140752 3.73678224 49.09863281 7.07055664 C49.94917236 7.27487305 50.79971191 7.47918945 51.67602539 7.68969727 C58.76677791 9.45933982 65.72030575 11.59970609 72.66113281 13.88305664 C73.64033691 14.20298584 74.61954102 14.52291504 75.62841797 14.85253906 C81.27677101 16.766376 86.53094634 19.02196295 91.79321289 21.83227539 C93.85783654 22.82725246 95.7364498 23.41964243 97.97363281 23.88305664 C97.97363281 24.54305664 97.97363281 25.20305664 97.97363281 25.88305664 C98.83601563 26.14086914 99.69839844 26.39868164 100.58691406 26.66430664 C104.07173055 27.91835825 106.9865168 29.48392006 110.16113281 31.38305664 C111.1859375 31.99149414 112.21074219 32.59993164 113.26660156 33.22680664 C115.19376957 34.40591087 117.09381347 35.62984375 118.97363281 36.88305664 C118.97363281 37.54305664 118.97363281 38.20305664 118.97363281 38.88305664 C119.55757813 39.1524707 120.14152344 39.42188477 120.74316406 39.69946289 C132.01597247 45.68135597 142.00624153 58.8247043 145.93847656 70.82836914 C149.0148263 82.14139719 148.72706929 92.77984331 143.71972656 103.59008789 C126.28942016 133.74879242 91.8720337 150.02948589 59.47363281 159.07055664 C16.72073458 170.45065929 -29.29835027 172.46258337 -73.02636719 165.88305664 C-74.07356934 165.72788574 -75.12077148 165.57271484 -76.19970703 165.4128418 C-87.70830754 163.6632777 -98.94777028 161.51167618 -110.02636719 157.88305664 C-110.94659668 157.58850586 -111.86682617 157.29395508 -112.81494141 156.99047852 C-116.01390734 155.9651239 -119.20831799 154.92668424 -122.40136719 153.88305664 C-123.42480225 153.55080078 -124.4482373 153.21854492 -125.50268555 152.8762207 C-131.28774545 150.95117991 -136.65056451 148.74715437 -142.02636719 145.88305664 C-143.20199219 145.3068457 -144.37761719 144.73063477 -145.58886719 144.13696289 C-158.34330708 137.86119872 -158.34330708 137.86119872 -164.02636719 133.88305664 C-164.02636719 133.22305664 -164.02636719 132.56305664 -164.02636719 131.88305664 C-164.72246094 131.66133789 -165.41855469 131.43961914 -166.13574219 131.21118164 C-178.39828852 125.57703873 -188.13206283 111.59551133 -193.02636719 99.38305664 C-196.96486266 85.59832247 -195.31335306 73.3743275 -188.72558594 60.80493164 C-183.15205839 51.2210268 -175.51193102 42.45202456 -165.78808594 36.98852539 C-163.97200166 35.94024775 -163.97200166 35.94024775 -162.52636719 34.38305664 C-159.58026446 31.43695392 -155.68844916 29.79822654 -152.02636719 27.88305664 C-150.86621094 27.27075195 -149.70605469 26.65844727 -148.51074219 26.02758789 C-132.01750241 17.46395181 -114.98752087 11.56709567 -97.02636719 6.88305664 C-95.86234375 6.5749707 -94.69832031 6.26688477 -93.49902344 5.94946289 C-77.34707923 2.09615605 -60.4069532 1.09127296 -43.90136719 -0.30444336 C-42.46603638 -0.4302478 -42.46603638 -0.4302478 -41.00170898 -0.55859375 C-27.26529383 -1.64628973 -13.70359524 -1.15052032 0 0 Z " fill="#000000" transform="translate(278.0263671875,82.116943359375)"/>
<path d="M0 0 C3.80827907 1.33895324 6.49334443 3.03779396 9.625 5.5625 C17.39361981 11.35729929 26.18747857 15.06787463 35 19 C35.77819092 19.35336426 36.55638184 19.70672852 37.3581543 20.07080078 C56.9489291 28.9158509 78.76571514 34.02215147 100 37 C100.91442871 37.13535156 101.82885742 37.27070313 102.77099609 37.41015625 C141.01871978 42.89795373 181.35449601 41.81758609 219 33 C219.82790039 32.81179687 220.65580078 32.62359375 221.50878906 32.4296875 C246.8926495 26.6232383 270.31974412 17.29707027 292.2109375 3.09399414 C294.09207754 1.94369549 296.0155643 0.95916213 298 0 C299.71160982 1.71160982 301.42245174 3.42386996 303.12890625 5.140625 C304.5993747 6.60188384 306.10587917 8.0268878 307.625 9.4375 C315.65813688 18.1048319 321.68912985 31.65137737 321.3125 43.609375 C319.3299312 58.77602634 312.3098924 69.21482888 302 80 C301.45859375 80.61617188 300.9171875 81.23234375 300.359375 81.8671875 C292.29400078 90.70651177 280.49623244 96.54938412 270 102 C269.36320312 102.34417969 268.72640625 102.68835938 268.0703125 103.04296875 C255.11594595 109.85374086 241.05813545 114.13927433 227 118 C226.10418213 118.2475 225.20836426 118.495 224.28540039 118.75 C215.88217874 120.96717138 207.40346864 122.39033713 198.8125 123.625 C197.6797464 123.78841888 197.6797464 123.78841888 196.52410889 123.95513916 C158.03471441 129.40274812 117.96146647 128.43092499 80 120 C78.43185547 119.68095703 78.43185547 119.68095703 76.83203125 119.35546875 C57.50272484 115.24949186 36.92877875 108.26827563 20 98 C19.04383789 97.42862305 19.04383789 97.42862305 18.06835938 96.84570312 C15.91344341 95.55434536 13.76779314 94.24886618 11.625 92.9375 C10.94614746 92.52588623 10.26729492 92.11427246 9.56787109 91.69018555 C5.52305802 89.169585 2.28429031 86.49726477 -1 83 C-1.70640625 82.35160156 -2.4128125 81.70320313 -3.140625 81.03515625 C-7.78765623 76.68932149 -11.50292625 72.13637014 -14.9375 66.8125 C-15.31487305 66.23056885 -15.69224609 65.6486377 -16.08105469 65.04907227 C-22.72922391 54.39351754 -23.49088425 41.56400207 -20.7421875 29.49609375 C-17.2146234 17.63233871 -8.82223397 8.36981172 0 0 Z " fill="#000000" transform="translate(105,214)"/>
</svg>
